<svg width="24" height="24" viewBox="0 0 24 24" fill="none" xmlns="http://www.w3.org/2000/svg">
<path d="M21 5.20362H16.1046C16.6847 4.96077 17.1991 4.61793 17.388 4.14081C17.5768 3.66369 17.4701 3.22085 17.0924 2.7123C16.9386 2.48477 16.733 2.30066 16.4942 2.1765C16.2554 2.05234 15.9909 1.992 15.7242 2.00091C14.2384 2.05519 12.5801 4.16938 12 5.00077C11.3898 4.16938 9.73427 2.05519 8.25114 2.00091C7.98447 1.99175 7.71981 2.05197 7.48097 2.17615C7.24213 2.30034 7.03662 2.48458 6.88294 2.7123C6.50532 3.218 6.40681 3.69512 6.58741 4.14081C6.76801 4.58651 7.2934 4.96077 7.87352 5.20362H3V9.31201H4.26148V22H19.7358V9.31201H21V5.20362ZM13.4284 9.31201V21.4286H10.5908V5.77502H13.4284V9.31201ZM15.7379 2.57231C15.9179 2.56866 16.096 2.61227 16.2556 2.69912C16.4153 2.78598 16.5516 2.91331 16.6519 3.06943C17.0213 3.56084 16.9118 3.8294 16.8763 3.92654C16.5753 4.65507 14.7638 5.10077 13.6856 5.21219H12.5227C13.2533 4.21509 14.6516 2.61231 15.7379 2.57231ZM7.09365 3.91511C7.05807 3.82654 6.94862 3.55798 7.31803 3.058C7.41977 2.90418 7.55659 2.77923 7.71616 2.69443C7.87572 2.60964 8.053 2.56767 8.23199 2.57231C9.32654 2.60945 10.7194 4.21224 11.4472 5.20076H10.2843C9.2034 5.0922 7.39191 4.6465 7.09365 3.91796V3.91511ZM3.53633 8.73775V5.77502H10.0435V8.7406H3.54728L3.53633 8.73775ZM4.79781 9.30915H10.0435V21.4286H4.80876L4.79781 9.30915ZM19.1885 21.4286H13.9894V9.31201H19.1885V21.4286ZM20.4527 8.74346H13.9757V5.77502H20.4527V8.74346Z" fill="white"/>
</svg>
