<svg width="24" height="24" viewBox="0 0 24 24" fill="none" xmlns="http://www.w3.org/2000/svg">
<path fill-rule="evenodd" clip-rule="evenodd" d="M12 2C6.47715 2 2 6.47715 2 12C2 17.5228 6.47715 22 12 22C17.5228 22 22 17.5228 22 12C22 6.47715 17.5228 2 12 2ZM12.8635 12.6648V13.7527H10.6453V11.4409C12.309 11.3805 13.1487 10.9574 13.1487 9.83933V9.6278C13.1487 8.85721 12.6259 8.44925 11.8653 8.44925C11.0414 8.44925 10.4868 8.9932 10.2967 9.73356L8.36362 8.96298C8.72805 7.75421 9.78965 6.54545 11.9445 6.54545C14.1628 6.54545 15.6363 7.81465 15.6363 9.65802C15.6363 11.3503 14.3529 12.4382 12.8635 12.6648ZM13.1963 16.3062C13.1963 16.9559 12.7843 17.4545 11.7861 17.4545C10.7879 17.4545 10.3759 16.9559 10.3759 16.3062V15.9436C10.3759 15.2939 10.7879 14.7953 11.7861 14.7953C12.7843 14.7953 13.1963 15.2939 13.1963 15.9436V16.3062Z" fill="white"/>
</svg>
