<svg width="14" height="12" viewBox="0 0 14 12" fill="none" xmlns="http://www.w3.org/2000/svg">
<path fill-rule="evenodd" clip-rule="evenodd" d="M14 1C14 1.55228 13.5523 2 13 2L1 2C0.447715 2 0 1.55228 0 0.999999C0 0.447715 0.447715 0 1 0H13C13.5523 0 14 0.447715 14 1ZM14 6C14 6.55228 13.5523 7 13 7L1 7C0.447715 7 0 6.55228 0 6C0 5.44771 0.447715 5 1 5L13 5C13.5523 5 14 5.44772 14 6ZM13 12C13.5523 12 14 11.5523 14 11C14 10.4477 13.5523 10 13 10H1C0.447715 10 0 10.4477 0 11C0 11.5523 0.447715 12 1 12H13Z" fill="#382980"/>
</svg>
