<svg width="24" height="24" viewBox="0 0 24 24" fill="none" xmlns="http://www.w3.org/2000/svg">
<g clip-path="url(#clip0)">
<path d="M20.6408 18.7545H0V14.7649H0.33075C1.0646 14.7649 1.66408 14.1654 1.66408 13.4315C1.66408 12.6977 1.0646 12.0982 0.33075 12.0982H0V8.10852H20.6408V12.0982H20.3101C19.5762 12.0982 18.9768 12.6977 18.9768 13.4315C18.9768 14.1654 19.5762 14.7649 20.3101 14.7649H20.6408V18.7545ZM0.661499 18.093H19.9793V15.3953C19.0388 15.2403 18.3153 14.4134 18.3153 13.4315C18.3153 12.4393 19.0388 11.6227 19.9793 11.4677V8.77002H0.661499V11.4677C1.60207 11.6227 2.32558 12.4496 2.32558 13.4315C2.32558 14.4238 1.60207 15.2403 0.661499 15.3953V18.093Z" fill="white"/>
<path d="M10.3152 17.0905C10.1292 17.0905 9.9845 16.9458 9.9845 16.7597V10.1034C9.9845 9.91735 10.1292 9.77264 10.3152 9.77264C10.5013 9.77264 10.646 9.91735 10.646 10.1034V16.7597C10.646 16.9458 10.5013 17.0905 10.3152 17.0905Z" fill="white"/>
<path d="M20.4548 16.9457L20.3824 16.2946L23.2765 15.9845L22.9871 13.3075C22.5737 13.2868 22.1809 13.1318 21.8605 12.8631C21.447 12.522 21.1886 12.0465 21.137 11.5194C21.0749 10.9923 21.23 10.4755 21.5711 10.062C21.8398 9.73127 22.1912 9.50388 22.584 9.39018L22.2946 6.71318L2.74935 8.78036L2.677 8.1292L22.8734 6L23.2972 9.96899L22.9664 10C22.615 10.0413 22.2946 10.2171 22.0672 10.4858C21.8398 10.7649 21.7364 11.1059 21.7778 11.4677C21.8191 11.8295 21.9845 12.1499 22.2636 12.3669C22.5426 12.5943 22.8837 12.6977 23.2455 12.6563L23.5762 12.6253L24 16.5943L20.4548 16.9457Z" fill="white"/>
</g>
<defs>
<clipPath id="clip0">
<rect width="24" height="24" fill="white"/>
</clipPath>
</defs>
</svg>
