<svg width="18" height="15" viewBox="0 0 18 15" fill="none" xmlns="http://www.w3.org/2000/svg">
<path fill-rule="evenodd" clip-rule="evenodd" d="M16.2768 14.875H1.72316C0.955335 14.875 0.473967 14.0455 0.854914 13.3789L8.13173 0.644425C8.51563 -0.0273899 9.48433 -0.0273896 9.86822 0.644425L17.145 13.3789C17.526 14.0455 17.0446 14.875 16.2768 14.875ZM7.87498 5.75C7.87498 5.19771 8.32269 4.75 8.87498 4.75H9.12498C9.67726 4.75 10.125 5.19771 10.125 5.75V8.25C10.125 8.80228 9.67726 9.25 9.12498 9.25H8.87498C8.32269 9.25 7.87498 8.80228 7.87498 8.25V5.75ZM8.99997 12.625C9.62129 12.625 10.125 12.1213 10.125 11.5C10.125 10.8787 9.62129 10.375 8.99997 10.375C8.37865 10.375 7.87497 10.8787 7.87497 11.5C7.87497 12.1213 8.37865 12.625 8.99997 12.625Z" fill="#F7C25D"/>
</svg>
