<svg width="31" height="20" viewBox="0 0 31 20" fill="none" xmlns="http://www.w3.org/2000/svg">
<path fill-rule="evenodd" clip-rule="evenodd" d="M29.4376 13.6661V13.1278V1.90654V1.12488L28.6862 1.26864L1.98542 6.38504L1.4679 6.48426V7.02294V18.2436V19.0252L2.21907 18.8817L28.9203 13.7655L29.4376 13.6661Z" fill="#FEFEFE"/>
<mask id="mask0" mask-type="alpha" maskUnits="userSpaceOnUse" x="0" y="0" width="31" height="20">
<path d="M0 0H30.6875V19.64H0V0Z" fill="white"/>
</mask>
<g mask="url(#mask0)">
<path fill-rule="evenodd" clip-rule="evenodd" d="M9.40568 10.722C9.32701 10.3042 9.0899 10.0652 8.75732 10.0652C8.70817 10.0652 8.65622 10.0709 8.60363 10.0804C8.37084 10.1273 8.12469 10.3198 7.96044 10.5847C7.76472 10.9011 7.69769 11.2953 7.77356 11.6944C7.8115 11.8926 7.94902 12.3526 8.41546 12.3526C8.46697 12.3526 8.52086 12.3473 8.57583 12.3361C9.10305 12.2315 9.56993 11.5842 9.40568 10.722ZM15.9848 10.1545L15.9844 10.1278L15.9158 10.141C15.7315 10.1781 14.8168 10.3886 14.9198 10.9304C14.9433 11.0541 15.0284 11.1196 15.1672 11.1196C15.2019 11.1196 15.2397 11.1152 15.2798 11.1075C15.6611 11.0316 15.9861 10.5196 15.9848 10.1545ZM28.407 2.82891L28.2602 7.69615L26.8085 7.98478L26.6613 3.17597L28.407 2.82891ZM26.126 7.08604V10.2263L24.4463 10.5602L24.4515 7.66043C24.448 7.55878 24.4388 7.45757 24.4267 7.39208C24.3799 7.14667 24.2594 7.0717 24.012 7.12176C23.4056 7.24281 23.05 7.97353 23.0541 8.61099L23.0571 10.8362L21.3778 11.1703V10.3866C21.3155 10.5675 21.2241 10.7401 21.0885 10.8951C20.7796 11.2492 20.308 11.4977 19.7245 11.6135C19.5305 11.6523 19.3297 11.6713 19.1279 11.6713C18.3571 11.6713 17.782 11.3939 17.6454 11.3216L17.6465 11.9127L16.1014 12.2199V11.8457C16.101 11.8236 16.101 11.802 16.1014 11.7802C15.9247 12.0355 15.5554 12.4426 14.951 12.5623C14.8372 12.5854 14.7223 12.5967 14.6092 12.5967C14.1468 12.5967 13.6222 12.3965 13.387 11.8646L13.3879 12.7711L13.3444 12.7865C13.3355 12.7892 13.137 12.8573 12.9197 12.9003C12.7417 12.9351 12.5736 12.9532 12.4203 12.9532C11.7081 12.9532 11.2762 12.5773 11.135 11.8362C11.1089 11.6975 11.1031 11.5381 11.0986 11.3789C11.0369 11.8009 10.8994 12.2035 10.6759 12.5601C10.2877 13.179 9.69365 13.6083 9.04701 13.7367C8.58057 13.8293 8.13051 13.7569 7.78154 13.5329C7.7852 13.607 7.78822 13.7122 7.78822 13.8383L7.79339 15.7767L6.12291 16.1096L6.11903 13.4317C6.05717 13.6074 5.96707 13.7759 5.83451 13.9291C5.52584 14.2822 5.05444 14.5307 4.47074 14.6466C4.27632 14.6854 4.07586 14.7046 3.87433 14.7046C3.00632 14.7046 2.38447 14.3516 2.35882 14.3362L2.30579 14.3051L2.94101 13.0174L2.99899 13.0507C3.00287 13.0531 3.37253 13.2663 3.86958 13.2663C3.9821 13.2663 4.09397 13.2555 4.20217 13.2341C4.41858 13.1909 4.63046 13.0807 4.60934 12.9713C4.58865 12.8628 4.32934 12.8004 4.05495 12.7349C3.4747 12.5962 2.59786 12.3852 2.41939 11.4446C2.33382 10.9946 2.47737 10.5372 2.82311 10.1578C3.14211 9.80807 3.61373 9.54986 4.11682 9.44976C4.33646 9.40588 4.55847 9.38405 4.77574 9.38405C5.52369 9.38405 5.98388 9.64159 6.00328 9.65217L6.05156 9.6793L5.54697 11.0179L5.48295 10.9809C5.48036 10.9791 5.20683 10.8241 4.76927 10.8241C4.64296 10.8241 4.51385 10.8369 4.38452 10.8625C4.17372 10.9046 3.9586 11.0197 3.97951 11.1341C3.99503 11.2164 4.24269 11.2728 4.48174 11.3271C5.03785 11.4558 5.85046 11.6519 6.11773 12.4602L6.11407 9.16686L7.64057 8.86324L7.64122 9.18979C7.64165 9.21824 7.64122 9.24624 7.64014 9.27336C7.91496 8.88705 8.34433 8.60834 8.82715 8.51309C8.97006 8.48487 9.11146 8.47009 9.24747 8.47009C10.1804 8.47009 10.8649 9.14106 11.0783 10.266C11.0833 10.2932 11.082 10.3203 11.0867 10.3483L11.0854 6.2724L12.7648 5.93923L12.7691 10.7423C12.7648 10.8684 12.777 11.0239 12.7908 11.0971C12.823 11.2655 12.926 11.3176 13.1243 11.2792C13.1836 11.2669 13.2303 11.2547 13.264 11.2457C13.2665 10.7121 13.5418 10.2281 14.0792 9.8332C14.7538 9.3362 15.6199 9.12475 15.9609 9.05705L15.9693 9.05529C15.9661 9.00546 15.9613 8.95893 15.9587 8.94306C15.9096 8.68419 15.7272 8.60702 15.3677 8.6789C14.8071 8.79003 14.1481 9.35605 14.1415 9.36156L14.0802 9.41492L13.4618 8.16735L13.5015 8.13472C13.5368 8.10495 14.3775 7.4095 15.4043 7.20532C15.5955 7.16696 15.7859 7.14799 15.9701 7.14799C16.4883 7.14799 17.3884 7.31028 17.5956 8.39821C17.6195 8.5261 17.6344 8.68199 17.6393 8.87669L17.6449 11.1002L18.195 9.98336L18.2532 10.0175C18.2569 10.02 18.6257 10.2332 19.1234 10.2332C19.2357 10.2332 19.3478 10.2228 19.456 10.2005C19.6724 10.1578 19.884 10.0475 19.8636 9.93816C19.8424 9.82923 19.5836 9.76727 19.3081 9.70134C18.7281 9.56221 17.8525 9.35252 17.673 8.41122C17.5876 7.96119 17.7312 7.50366 18.0771 7.12528C18.3959 6.77514 18.8673 6.51671 19.3704 6.41727C19.5907 6.37273 19.812 6.3509 20.0293 6.3509C20.7779 6.3509 21.2383 6.60844 21.2573 6.61969L21.3054 6.64681L20.8005 7.98478L20.737 7.9473C20.7342 7.94597 20.4604 7.79052 20.0235 7.79052C19.8968 7.79052 19.7674 7.80397 19.6392 7.82933C19.4269 7.871 19.2118 7.98743 19.2337 8.10098C19.2493 8.18279 19.4963 8.23967 19.736 8.29436C20.2962 8.42313 21.1172 8.62179 21.3778 9.44645V4.22642L23.0571 3.89214L23.0567 6.12423C23.0567 6.18288 23.0558 6.23845 23.0545 6.28718C23.311 5.87661 23.7992 5.53594 24.3058 5.43518C24.4635 5.40431 24.6155 5.38843 24.7584 5.38843C25.2652 5.38843 25.9081 5.58732 26.0881 6.53766C26.1207 6.70744 26.1256 6.9017 26.126 7.08604ZM26.7774 8.53514L28.3233 8.22843L28.3244 9.78932L26.7792 10.0963L26.7774 8.53514ZM30.6874 13.7602V13.1695V0.857891V-6.10352e-05L29.8632 0.158035L0.567843 5.77166L-0.00012207 5.88014V6.47107V18.7823V19.64L0.824128 19.4824L30.1197 13.8692L30.6874 13.7602Z" fill="#D12233"/>
</g>
</svg>
