<svg viewBox="0 0 24 24" fill="none" xmlns="http://www.w3.org/2000/svg">
<path d="M12 22C11.655 22 11.375 21.7206 11.375 21.375C11.375 19.3069 13.0569 17.625 15.125 17.625C15.4706 17.625 15.75 17.9044 15.75 18.25C15.75 18.5956 15.4706 18.875 15.125 18.875C13.7462 18.875 12.625 19.9962 12.625 21.375C12.625 21.7206 12.345 22 12 22Z" fill="white"/>
<path d="M8.875 18.875C8.53 18.875 8.25 18.5956 8.25 18.25C8.25 17.9044 8.53 17.625 8.875 17.625C10.2538 17.625 11.375 16.5038 11.375 15.125C11.375 14.7794 11.655 14.5 12 14.5C12.345 14.5 12.625 14.7794 12.625 15.125C12.625 17.1931 10.9431 18.875 8.875 18.875Z" fill="white"/>
<path d="M12 22C11.655 22 11.375 21.7206 11.375 21.375C11.375 19.9962 10.2538 18.875 8.875 18.875C8.53 18.875 8.25 18.5956 8.25 18.25C8.25 17.9044 8.53 17.625 8.875 17.625C10.9431 17.625 12.625 19.3069 12.625 21.375C12.625 21.7206 12.345 22 12 22Z" fill="white"/>
<path d="M15.125 18.875C13.0569 18.875 11.375 17.1931 11.375 15.125C11.375 14.7794 11.655 14.5 12 14.5C12.345 14.5 12.625 14.7794 12.625 15.125C12.625 16.5038 13.7462 17.625 15.125 17.625C15.4706 17.625 15.75 17.9044 15.75 18.25C15.75 18.5956 15.4706 18.875 15.125 18.875Z" fill="white"/>
<path d="M6.375 5.125C6.03 5.125 5.75 4.845 5.75 4.5V2.625C5.75 2.28 6.03 2 6.375 2C6.72 2 7 2.28 7 2.625V4.5C7 4.845 6.72 5.125 6.375 5.125Z" fill="white"/>
<path d="M6.375 10.75C6.03 10.75 5.75 10.47 5.75 10.125V8.25C5.75 7.905 6.03 7.625 6.375 7.625C6.72 7.625 7 7.905 7 8.25V10.125C7 10.47 6.72 10.75 6.375 10.75Z" fill="white"/>
<path d="M6.375 7C6.2125 7 6.05 6.93125 5.93125 6.81875C5.81875 6.7 5.75 6.5375 5.75 6.375C5.75 6.2125 5.81875 6.05 5.93125 5.93125C6.16875 5.7 6.58125 5.7 6.81875 5.93125C6.93125 6.05 7 6.2125 7 6.375C7 6.5375 6.93125 6.7 6.81875 6.81875C6.7 6.93125 6.5375 7 6.375 7Z" fill="white"/>
<path d="M12 11.375C11.8375 11.375 11.675 11.3063 11.5562 11.1938C11.4437 11.075 11.375 10.9125 11.375 10.75C11.375 10.5875 11.4437 10.425 11.5562 10.3063C11.7937 10.075 12.2125 10.075 12.4437 10.3063C12.5562 10.425 12.625 10.5875 12.625 10.75C12.625 10.9125 12.5562 11.075 12.4437 11.1938C12.325 11.3063 12.1625 11.375 12 11.375Z" fill="white"/>
<path d="M3.875 22C3.7125 22 3.55 21.9312 3.43125 21.8187C3.31875 21.7 3.25 21.5375 3.25 21.375C3.25 21.2056 3.31875 21.0438 3.43125 20.9313C3.66875 20.7 4.0875 20.7 4.31875 20.9313C4.43125 21.0494 4.5 21.2056 4.5 21.375C4.5 21.5375 4.43125 21.7 4.31875 21.8187C4.2 21.9312 4.04375 22 3.875 22Z" fill="white"/>
<path d="M2.625 13.25C2.4625 13.25 2.3 13.1812 2.18125 13.0687C2.06875 12.95 2 12.7937 2 12.625C2 12.4625 2.06875 12.3 2.18125 12.1813C2.4125 11.95 2.83125 11.95 3.06875 12.1813C3.18125 12.3 3.25 12.4625 3.25 12.625C3.25 12.7875 3.18125 12.95 3.06875 13.0687C2.95 13.1812 2.7875 13.25 2.625 13.25Z" fill="white"/>
<path d="M16.375 14.5C16.2125 14.5 16.0494 14.4312 15.9313 14.3187C15.8181 14.2 15.75 14.0375 15.75 13.875C15.75 13.7125 15.8181 13.5494 15.9313 13.4313C16.1688 13.2 16.5875 13.2 16.8187 13.4313C16.9312 13.5494 17 13.7125 17 13.875C17 14.0375 16.9312 14.2 16.8187 14.3187C16.7 14.4312 16.5375 14.5 16.375 14.5Z" fill="white"/>
<path d="M20.125 20.75C19.9556 20.75 19.7994 20.6812 19.6813 20.5687C19.5681 20.45 19.5 20.2875 19.5 20.125C19.5 19.9556 19.5681 19.7994 19.6813 19.6813C19.9125 19.45 20.3375 19.45 20.5687 19.6813C20.6812 19.7994 20.75 19.9556 20.75 20.125C20.75 20.2875 20.6812 20.45 20.5687 20.5687C20.45 20.6812 20.2875 20.75 20.125 20.75Z" fill="white"/>
<path d="M21.375 12C21.2056 12 21.0494 11.9312 20.9313 11.8187C20.8181 11.7 20.75 11.5375 20.75 11.375C20.75 11.2062 20.8181 11.05 20.9313 10.9312C21.1556 10.7062 21.5812 10.7 21.8187 10.9312C21.9312 11.05 22 11.2062 22 11.375C22 11.5375 21.9312 11.7 21.8187 11.8187C21.7 11.9312 21.5375 12 21.375 12Z" fill="white"/>
<path d="M7.625 15.75C7.4625 15.75 7.3 15.6812 7.18125 15.5687C7.06875 15.45 7 15.2875 7 15.125C7 14.9625 7.06875 14.7994 7.18125 14.6813C7.4125 14.45 7.83125 14.45 8.06875 14.6813C8.18125 14.7994 8.25 14.9625 8.25 15.125C8.25 15.2875 8.18125 15.45 8.06875 15.5687C7.95 15.6812 7.7875 15.75 7.625 15.75Z" fill="white"/>
<path d="M12 3.25C11.8375 3.25 11.675 3.18125 11.5562 3.06875C11.4437 2.95 11.375 2.7875 11.375 2.625C11.375 2.4625 11.4437 2.3 11.5562 2.18125C11.7937 1.95 12.2062 1.95 12.4437 2.18125C12.5562 2.3 12.625 2.4625 12.625 2.625C12.625 2.7875 12.5562 2.95 12.4437 3.06875C12.325 3.18125 12.1625 3.25 12 3.25Z" fill="white"/>
<path d="M4.5 7H2.625C2.28 7 2 6.72 2 6.375C2 6.03 2.28 5.75 2.625 5.75H4.5C4.845 5.75 5.125 6.03 5.125 6.375C5.125 6.72 4.845 7 4.5 7Z" fill="white"/>
<path d="M10.125 7H8.25C7.905 7 7.625 6.72 7.625 6.375C7.625 6.03 7.905 5.75 8.25 5.75H10.125C10.47 5.75 10.75 6.03 10.75 6.375C10.75 6.72 10.47 7 10.125 7Z" fill="white"/>
<path d="M18.25 9.5C17.9044 9.5 17.625 9.22 17.625 8.875C17.625 6.80687 19.3069 5.125 21.375 5.125C21.7206 5.125 22 5.405 22 5.75C22 6.095 21.7206 6.375 21.375 6.375C19.9962 6.375 18.875 7.49625 18.875 8.875C18.875 9.22 18.5956 9.5 18.25 9.5Z" fill="white"/>
<path d="M15.125 6.375C14.7794 6.375 14.5 6.095 14.5 5.75C14.5 5.405 14.7794 5.125 15.125 5.125C16.5038 5.125 17.625 4.00375 17.625 2.625C17.625 2.28 17.9044 2 18.25 2C18.5956 2 18.875 2.28 18.875 2.625C18.875 4.69313 17.1931 6.375 15.125 6.375Z" fill="white"/>
<path d="M18.25 9.5C17.9044 9.5 17.625 9.22 17.625 8.875C17.625 7.49625 16.5038 6.375 15.125 6.375C14.7794 6.375 14.5 6.095 14.5 5.75C14.5 5.405 14.7794 5.125 15.125 5.125C17.1931 5.125 18.875 6.80687 18.875 8.875C18.875 9.22 18.5956 9.5 18.25 9.5Z" fill="white"/>
<path d="M21.375 6.375C19.3069 6.375 17.625 4.69313 17.625 2.625C17.625 2.28 17.9044 2 18.25 2C18.5956 2 18.875 2.28 18.875 2.625C18.875 4.00375 19.9962 5.125 21.375 5.125C21.7206 5.125 22 5.405 22 5.75C22 6.095 21.7206 6.375 21.375 6.375Z" fill="white"/>
</svg>
