<svg width="12" height="12" viewBox="0 0 12 12" fill="none" xmlns="http://www.w3.org/2000/svg">
<path fill-rule="evenodd" clip-rule="evenodd" d="M10.308 11.7097C10.6951 12.0968 11.3226 12.0968 11.7097 11.7097C12.0968 11.3226 12.0968 10.6951 11.7097 10.308L7.40167 6L11.7097 1.69197C12.0968 1.30491 12.0968 0.677362 11.7097 0.290303C11.3226 -0.0967564 10.6951 -0.0967564 10.308 0.290303L6 4.59833L1.69196 0.290294C1.3049 -0.0967648 0.677354 -0.0967645 0.290296 0.290294C-0.0967648 0.677354 -0.0967651 1.3049 0.290295 1.69196L4.59834 6L0.290295 10.308C-0.0967651 10.6951 -0.0967648 11.3226 0.290295 11.7097C0.677355 12.0968 1.3049 12.0968 1.69196 11.7097L6 7.40167L10.308 11.7097Z" fill="#382980"/>
</svg>
