<svg width="24" height="24" viewBox="0 0 24 24" fill="none" xmlns="http://www.w3.org/2000/svg">
<path fill-rule="evenodd" clip-rule="evenodd" d="M10 4C10 3.44772 10.4477 3 11 3H13C13.5523 3 14 3.44772 14 4V6C14 6.55228 13.5523 7 13 7H11C10.4477 7 10 6.55228 10 6V4ZM10 11C10 10.4477 10.4477 10 11 10H13C13.5523 10 14 10.4477 14 11V13C14 13.5523 13.5523 14 13 14H11C10.4477 14 10 13.5523 10 13V11ZM11 17C10.4477 17 10 17.4477 10 18V20C10 20.5523 10.4477 21 11 21H13C13.5523 21 14 20.5523 14 20V18C14 17.4477 13.5523 17 13 17H11Z" fill="white"/>
</svg>
