<svg viewBox="0 0 24 24" fill="none" xmlns="http://www.w3.org/2000/svg">
<path d="M22 13.6708C22 11.6311 20.923 9.85249 19.3377 8.92938C19.1494 9.17289 18.9288 9.38713 18.6838 9.56683C20.148 10.2918 21.1667 11.8565 21.1667 13.6705C21.1667 14.262 20.36 14.7668 19.1358 15.0496C18.5363 13.093 17.2344 11.466 15.5407 10.506C15.3416 10.7405 15.1224 10.9547 14.8852 11.1464C17.1185 12.2826 18.6669 14.6858 18.6669 17.4691C18.6669 18.3478 17.5344 18.9876 16.7452 19.174L15.3416 16.2569L15.6621 19.702C14.5543 19.9777 13.2629 20.1217 11.9999 20.1217C10.8857 20.1217 9.4726 20.0087 8.45926 19.7933L8.79732 16.2569L7.3698 19.3001C6.2145 18.9513 5.34644 18.183 5.3331 17.4694C5.28116 14.6866 6.88146 12.2829 9.11482 11.1467C8.8776 10.955 8.65843 10.7408 8.45926 10.5063C6.76562 11.4663 5.46366 13.0933 4.86421 15.0499C3.63974 14.7671 2.83335 14.2623 2.83335 13.6708C2.83335 11.8567 3.85197 10.2921 5.31616 9.56713C5.07115 9.38713 4.8506 9.17289 4.66226 8.92967C3.07696 9.85278 2 11.6311 2 13.6711C2 14.8169 3.13918 15.5398 4.65115 15.898C4.55337 16.4064 4.50004 16.9312 4.50004 17.4694C4.50004 19.9083 8.26703 21 12.0001 21C15.7332 21 19.5002 19.9086 19.5002 17.4694C19.5002 16.9312 19.4469 16.4061 19.3491 15.898C20.8608 15.5392 22 14.8166 22 13.6708Z" fill="white"/>
<path d="M7.13893 9.43925C7.32948 9.43925 7.51532 9.41671 7.69449 9.37603C7.57032 9.10765 7.46782 8.82697 7.39004 8.53458C7.30726 8.54687 7.22476 8.56151 7.13893 8.56151C6.14336 8.56151 5.33334 7.70777 5.33334 6.65881C5.33334 5.60985 6.14336 4.7564 7.13893 4.7564C7.34976 4.7564 7.54921 4.80177 7.73727 4.8723C7.8681 4.60363 8.02144 4.35017 8.19422 4.11222C7.8706 3.96295 7.51421 3.87866 7.13893 3.87866C5.68391 3.87866 4.5 5.12576 4.5 6.6591C4.5 8.19244 5.68363 9.43925 7.13893 9.43925Z" fill="white"/>
<path d="M16.861 4.75607C17.8565 4.75607 18.6665 5.60923 18.6665 6.65848C18.6665 7.70773 17.8565 8.56118 16.861 8.56118C16.7748 8.56118 16.6926 8.54684 16.6098 8.53425C16.5321 8.82664 16.4296 9.10732 16.3054 9.3757C16.4848 9.41638 16.6704 9.43892 16.861 9.43892C18.316 9.43892 19.4999 8.19123 19.4999 6.65819C19.4999 5.12514 18.316 3.87775 16.861 3.87775C16.4857 3.87775 16.129 3.96204 15.8057 4.1113C15.9782 4.34925 16.1318 4.60271 16.2626 4.87139C16.4507 4.80144 16.6501 4.75607 16.861 4.75607Z" fill="white"/>
<path d="M11.9999 10.9023C14.0677 10.9023 15.75 9.12985 15.75 6.95115C15.75 4.77246 14.0677 3 11.9999 3C9.93212 3 8.24988 4.77246 8.24988 6.95115C8.24988 9.12985 9.9324 10.9023 11.9999 10.9023ZM11.9999 3.87803C13.6083 3.87803 14.9166 5.25684 14.9166 6.95115C14.9166 8.64546 13.6083 10.0243 11.9999 10.0243C10.3916 10.0243 9.08322 8.64546 9.08322 6.95115C9.08322 5.25684 10.3919 3.87803 11.9999 3.87803Z" fill="white"/>
</svg>
