<svg viewBox="0 0 24 24" fill="none" xmlns="http://www.w3.org/2000/svg">
<path d="M21.6556 9.41272C20.9642 6.83342 19.3106 4.67701 16.9979 3.34155C15.4786 2.46391 13.7536 2 12.0093 2C8.44421 2 5.12413 3.91651 3.34389 7.00124C2.00849 9.31324 1.65396 12.008 2.3447 14.5879C3.03572 17.1678 4.68967 19.3236 7.00171 20.659C8.5214 21.5355 10.2464 22 11.9904 22C15.5554 22 18.8761 20.0835 20.6561 16.9994C21.9918 14.6862 22.3457 11.9915 21.6556 9.41272ZM21.1662 10.5236C21.2504 11.0381 21.2901 11.563 21.2852 12.0836L21.2845 12.1746L18.2574 15.2032L16.8179 14.3719L21.096 10.0933L21.1662 10.5236ZM20.3651 7.96805C20.5517 8.35624 20.7128 8.76028 20.8434 9.16922L20.8849 9.29863L16.1803 14.0044L14.7415 13.1719L20.2283 7.68485L20.3651 7.96805ZM19.0372 5.93862C19.1648 6.08694 19.288 6.23952 19.407 6.3964C19.5303 6.55933 19.6468 6.72598 19.7585 6.89625L19.8585 7.04883L14.1044 12.8045L12.6644 11.9732L18.8798 5.75612L19.0372 5.93862ZM12.355 2.71538L12.5927 2.73003C12.9682 2.75383 13.3453 2.80083 13.7139 2.87042L14.13 2.94856L12.355 4.72347V2.71538ZM12.355 5.72927L14.9062 3.17741L15.0392 3.22316C15.4407 3.36355 15.8368 3.53199 16.2151 3.72489L16.4891 3.86528L12.355 7.99978V5.72927ZM12.355 9.00562L17.1139 4.24612L17.267 4.35173C17.5972 4.57878 17.9126 4.82717 18.2061 5.09087L18.3818 5.24833L12.355 11.2767V9.00562ZM19.7274 17.1477C19.3728 17.6824 18.9628 18.1798 18.5088 18.6266C17.9322 19.1936 17.2811 19.6843 16.5751 20.0829C15.179 20.8721 13.5931 21.2883 11.9904 21.2883C11.1941 21.2883 10.4011 21.1858 9.63288 20.9831C8.84085 20.7732 8.07534 20.457 7.35808 20.0432C6.27163 19.4152 5.34139 18.5942 4.59268 17.603C3.86959 16.6466 3.34451 15.5705 3.03178 14.4042C2.71935 13.2365 2.63607 12.0415 2.78435 10.8513C2.93689 9.61965 3.33201 8.44411 3.95897 7.35645C4.38061 6.62646 4.89623 5.96 5.4912 5.37403C6.06721 4.80642 6.71764 4.31692 7.42429 3.91776C8.63706 3.23235 10.0143 2.82216 11.4061 2.73124L11.6447 2.71659L11.6453 11.9744C11.6355 12.1117 11.7036 12.2393 11.8223 12.3083L19.8591 16.9494L19.7274 17.1477ZM20.2155 16.3335L18.8944 15.5706L21.237 13.2299L21.0753 13.9727C20.9154 14.7112 20.6616 15.4339 20.3211 16.1199L20.2155 16.3335Z" fill="white"/>
</svg>
