<svg width="24" height="24" viewBox="0 0 24 24" fill="none" xmlns="http://www.w3.org/2000/svg">
<path d="M20.3405 19.8271C20.7095 19.4406 20.7095 18.8322 20.3405 18.4458L16.3089 14.2241C17.1912 12.9535 17.7128 11.3907 17.7128 9.70292C17.7128 5.45562 14.4128 2 10.356 2C6.30001 2 3 5.45562 3 9.70292C3 13.951 6.30001 17.4058 10.356 17.4058C11.8938 17.4058 13.3219 16.9095 14.5043 16.0616L18.4971 20.2427C18.891 20.6552 19.5496 20.6552 19.9435 20.2427L20.3405 19.8271ZM5.15767 9.70292C5.15767 6.70092 7.48998 4.25862 10.3568 4.25862C13.2236 4.25862 15.5559 6.70092 15.5559 9.70292C15.5559 12.7049 13.2236 15.1472 10.3568 15.1472C7.48923 15.1472 5.15767 12.7049 5.15767 9.70292Z" fill="white"/>
</svg>
