<svg  viewBox="0 0 24 24" fill="none" xmlns="http://www.w3.org/2000/svg">
<path d="M21.9851 20.7957C21.9905 20.7765 21.9958 20.7585 21.9969 20.739C21.9973 20.7338 22 20.7294 22 20.7243C22 20.7121 21.9943 20.7014 21.9927 20.6897C21.9901 20.6705 21.9874 20.6521 21.9809 20.6341C21.9744 20.616 21.9645 20.5995 21.9542 20.5833C21.9477 20.5733 21.9454 20.5615 21.9374 20.552L12.3661 6.58144L14.9613 3.4482C15.0602 3.32892 15.04 3.15553 14.9162 3.06018C14.7932 2.96557 14.6122 2.98434 14.5136 3.10362L11.9998 6.13893L9.48602 3.10399C9.38747 2.98508 9.20756 2.96557 9.08341 3.06055C8.95965 3.15553 8.93941 3.32929 9.03834 3.44857L11.6331 6.58181L2.06226 20.5516C2.05424 20.5608 2.05195 20.5726 2.04584 20.5829C2.03552 20.5991 2.02559 20.6153 2.01872 20.6337C2.01222 20.6521 2.00955 20.6705 2.00726 20.6889C2.00573 20.7007 2 20.7117 2 20.7239C2 20.7294 2.00267 20.7335 2.00306 20.7386C2.0042 20.7581 2.00955 20.7762 2.0149 20.7946C2.01948 20.8111 2.02292 20.8273 2.03056 20.8424C2.0382 20.8575 2.04928 20.87 2.05959 20.8837C2.07181 20.8995 2.08289 20.915 2.09817 20.9278C2.10237 20.9315 2.1039 20.9359 2.1081 20.9393C2.12109 20.9492 2.13598 20.954 2.15012 20.9617C2.16158 20.968 2.17189 20.9753 2.18411 20.9798C2.21734 20.9923 2.25172 21 2.28648 21H21.7139C21.7487 21 21.7834 20.9923 21.8167 20.9798C21.8289 20.9753 21.8396 20.968 21.851 20.9617C21.8648 20.954 21.8797 20.9496 21.8927 20.9393C21.8969 20.9359 21.8988 20.9315 21.9026 20.9278C21.9175 20.915 21.9286 20.8999 21.9408 20.884C21.9511 20.8704 21.9629 20.8575 21.9702 20.8424C21.9771 20.8277 21.9801 20.8119 21.9851 20.7957ZM19.231 20.4478C14.4739 20.4478 12.5735 14.6606 12.3027 7.3895L21.1184 20.4478H19.231ZM2.88122 20.4478L11.6969 7.3895C11.4261 14.6606 9.52571 20.4478 4.76857 20.4478H2.88122ZM7.3706 20.4478C10.6243 19.0441 11.1728 15.0814 11.9998 10.0909C12.8268 15.0814 13.3753 19.0441 16.629 20.4478H7.3706Z" fill="white"/>
</svg>
